# xmcd CD database file
#
# Track frame offsets:
#	150
#	32788
#	71454
#	111437
#	155449
#	169510
#	216652
#	248269
#	272702
#
# Disc length: 4113 seconds
#
# Revision: 0
# Processed by: cddbd v1.5.2PL0 Copyright (c) Steve Scherf et al.
# Submitted via: CDex 1.51
#
DISCID=7a100f09
DTITLE=Rava Enrico - Flashback
DYEAR=2001
DGENRE=Jazz
TTITLE0=Misterioso - 1rst Emotion
TTITLE1=The Way You LookTonight
TTITLE2=Polka Dots And Moonbeams
TTITLE3=Line For Lyons
TTITLE4=Nature Boy
TTITLE5=Old Devil Moon
TTITLE6=I'll close My eyes
TTITLE7=There's No You
TTITLE8=Misterioso - 2nd Emotion
EXTD=YEAR: 2001
EXTT0=
EXTT1=
EXTT2=
EXTT3=
EXTT4=
EXTT5=
EXTT6=
EXTT7=
EXTT8=
PLAYORDER=
